<svg xmlns="http://www.w3.org/2000/svg" xml:space="preserve" style="fill-rule:evenodd;clip-rule:evenodd;stroke-linejoin:round;stroke-miterlimit:2" viewBox="0 0 1080 1080"><path d="M4488 10636c-94-19-112-26-143-56-65-63-66-74-4-402 29-159 57-294 60-299 6-10 136 7 157 20 6 4-1 62-19 156-16 82-27 155-25 160 6 16 148 38 156 25 4-6 19-78 34-160 16-83 29-150 30-150 9 0 161 31 163 34 2 2-21 135-52 296-38 200-62 304-76 326-23 39-92 74-140 73-19 0-82-10-141-23Zm107-99c21-18 30-40 44-111 12-61 14-89 7-92-6-2-43-10-83-18l-71-13-18 93c-15 78-15 98-5 118 26 48 85 59 126 23ZM3724 10430c-62-21-124-46-139-56-35-23-65-84-65-132 0-42 136-443 165-488 20-31 88-63 132-64 46 0 251 74 280 102 75 70 72 114-32 395-3 9-38 1-122-28-65-22-119-42-121-43-2-3 18-68 24-74 1-2 19 1 40 8 44 15 44 15 80-93 30-91 26-115-27-142-32-17-62-15-91 7-16 12-168 422-168 453 0 29 49 71 102 88 74 23 95 22 123-9 22-24 27-25 60-14 19 6 35 18 35 25 0 20-48 73-81 90-42 22-72 18-195-25ZM3070 10151c-50-16-190-91-224-121-41-37-60-87-53-144 5-42 266-547 286-554 13-4 141 67 141 78 0 5-31 67-70 139-38 72-70 135-70 140 0 9 139 86 144 79 2-1 36-67 76-145l74-141 56 28c107 55 111 23-43 316-75 143-149 272-164 286-16 14-46 31-68 37-45 12-50 12-85 2Zm12-133c16-14 103-167 97-172-2-2-35-20-73-41-77-43-68-47-121 57-41 80-44 110-10 143 27 28 80 34 107 13ZM2395 9770c-28-29-30-39-60-270-18-132-34-242-37-245-5-5-406 29-468 39-14 3-33-2-43-9-17-12-1-35 208-297 125-156 231-285 237-287 10-3 58 37 58 49 0 4-61 83-135 176-74 92-133 169-132 171 1 1 92-7 201-18s199-19 201-17 13 82 25 178 25 186 29 199c6 21 20 6 136-140 72-89 133-167 137-173 6-9 102 57 128 90 10 11-32 69-216 299-125 157-231 285-234 285s-19-13-35-30ZM5155 9564c-22-2-92-9-155-14-1803-167-3307-1565-3614-3360-46-266-51-338-51-705 1-373 7-452 60-742 143-778 521-1506 1082-2083 254-262 475-438 831-663l42-27v-168c0-182 8-418 16-469 4-28 12-34 82-64 284-119 542-197 740-224 38-5 43-3 38 12-8 28-33 182-56 348-11 83-23 164-25 182l-6 31 63-19c623-192 1332-230 1972-105 67 13 122 23 124 21 1-1-9-71-23-156-28-173-30-208-12-214 20-8 697 41 707 51 9 9 65 288 96 477l18 109 145 73c389 195 722 436 1037 750 94 93 204 211 246 260 552 663 871 1428 948 2280 14 151 13 551 0 703-69 764-340 1473-794 2080-680 908-1684 1486-2811 1617-132 15-607 28-700 19Zm-215-138c0-2-39-26-87-52-128-70-329-207-483-330-152-122-532-495-659-649-802-966-1202-2051-1143-3097 18-309 47-509 119-801l36-148 70-35c38-20 71-34 73-32s-6 33-17 68c-61 197-117 471-145 715-22 187-25 625-6 795 81 701 334 1368 762 2005 434 646 1034 1209 1550 1454 104 49 229 96 236 88 2-2-5-15-16-29-121-155-401-722-535-1085l-38-103h-557v-360h215c118 0 215-2 215-5s-22-83-49-177c-105-367-174-684-231-1063l-21-140-206-495c-113-272-208-503-210-512-5-17 8-18 170-18 131 0 177 3 180 13 3 6 6-28 6-78 2-225 35-608 77-905 23-163 110-618 134-703l11-38 27 20c15 11 37 29 50 39l23 18-35 165c-65 302-114 630-147 974-5 61-13 268-16 460l-6 350 291 700c160 385 298 717 307 738l15 37h-355l-54-135c-30-74-56-133-59-131-11 11 116 525 200 809l23 77h1451l82-252c45-139 102-329 127-423 25-93 48-179 51-190 17-56-18 13-62 122l-49 123h-355l9-22c5-13 150-360 321-773l312-750-5-290c-7-322-23-527-68-840-25-174-93-542-115-621-5-17 3-25 47-47 29-14 55-25 56-23 6 6 62 263 87 401 58 319 89 598 108 953l11 222h165c152 0 164 1 159 18-2 9-92 229-200 487-133 322-197 487-202 525-37 292-166 828-294 1220-28 85-51 155-51 157 0 1 109 4 243 5l242 3v350l-314 5-313 5-20 50c-112 288-383 837-541 1095-56 92-50 95 85 50 425-143 978-581 1430-1135 514-630 873-1374 1003-2079 46-250 59-404 59-676 0-266-14-433-55-650-26-136-83-359-120-468-16-47-29-89-29-94 0-4 33 9 74 29l74 36 36 133c208 751 189 1474-56 2234-161 499-457 1050-803 1495-393 505-873 936-1301 1167-41 22-74 41-74 42 0 5 226-31 315-49 1506-307 2700-1446 3064-2923 90-365 133-798 113-1132l-7-125-159-127c-776-622-1630-1044-2465-1218-128-27-155-39-145-65 3-6 36-38 74-70 152-126 306-305 396-461 11-19 13-19 85 0 121 30 532 169 709 238 429 170 792 353 1144 579 76 50 140 88 141 87 3-4-107-271-152-368-54-116-171-324-250-445-381-583-934-1080-1541-1384l-83-42 8 63c4 35 7 200 8 368 0 328-10 431-60 630-70 276-179 450-419 670-146 133-243 201-332 230-135 45-332 12-282-48 8-9 37-44 65-77 288-341 391-833 318-1530-15-141-70-531-81-566-3-12-41-23-142-42-158-31-353-59-359-53-3 3 21 18 53 34 118 60 411 258 456 308 15 17 43 162 33 172-2 3-28-16-57-40-168-141-383-284-553-368-107-53-243-106-250-98-2 2 37 71 87 153 174 293 376 719 526 1110 98 254 95 227 21 223l-63-3-52-137c-124-325-268-645-401-893-85-159-235-415-243-415-9 0-107 153-172 269-162 288-380 794-498 1154-15 46-26 67-35 63-7-2-31-10-54-17s-41-15-41-19c0-36 182-519 280-745 79-181 253-520 325-631 35-54 62-100 60-102-9-9-149 45-270 102-259 124-576 348-806 572-37 35-70 64-73 64-8 0 3-135 13-162 7-19 147-143 271-239 166-128 322-229 477-309 95-49 83-50-123-15-216 38-583 130-605 153-12 12-60 512-74 772-30 533-12 763 75 947 37 79 117 166 181 195 27 12 49 25 49 30 0 13-38 86-48 92-15 9-176-92-290-182-59-47-206-184-328-306-214-215-221-223-253-300-75-181-106-405-99-719 2-86 0-157-4-157-3 0-55 32-114 71-527 347-975 830-1284 1383-93 167-248 501-237 512 2 2 20-8 40-21 79-54 363-212 557-309 324-164 595-280 1025-442l220-82 185 181c102 100 243 229 313 287 99 82 123 106 109 112-9 3-80 21-157 38-639 147-1346 468-1975 898-238 163-556 413-566 446-14 44-7 548 10 703 101 931 485 1738 1137 2392 607 609 1368 991 2244 1125 50 8 91 14 93 15 1 0 2-1 2-3Zm550-246c146-261 428-849 464-967l7-23H4780l24 63c156 414 361 826 523 1055 38 53 48 62 58 50 7-7 54-87 105-178Z" style="fill-rule:nonzero" transform="matrix(.1 0 0 -.1 -.432 1080)"/><path d="M7118 8819c-69-36-98-138-62-215 47-99 181-119 260-40s59 213-40 260c-45 21-113 20-158-5Zm157-29c31-19 65-80 65-116 0-9-8-32-17-51-43-92-185-99-237-13-21 36-21 109 0 139 42 59 129 78 189 41Z" style="fill-rule:nonzero" transform="matrix(.1 0 0 -.1 -.432 1080)"/><path d="M7130 8680c0-82 3-100 15-100 11 0 15 11 15 40 0 55 31 55 62 0 14-23 31-40 41-40 19 0 18 4-15 52-19 27-19 28 3 57 39 53 5 91-82 91h-39v-100Zm102 47c11-18-12-37-43-37-26 0-29 4-29 31 0 29 1 30 33 24 17-4 35-12 39-18ZM5240 6510V4445h345l3 1033 2 1032h-350ZM4974 3989c-76-13-210-64-290-110-83-49-224-149-224-160 0-14 436-349 455-349 3 0 5 24 5 53 1 77 24 195 50 250 34 73 102 140 217 217 103 70 104 70 76 81-75 28-186 35-289 18Z" style="fill-rule:nonzero" transform="matrix(.1 0 0 -.1 -.432 1080)"/><path d="M5218 3851c-100-63-174-172-198-288-28-131 7-300 85-417l38-57 81 6c263 20 342 36 418 84 85 54 113 155 88 309-12 70-17 81-54 117-23 22-99 71-168 109-70 38-151 90-182 117-30 27-56 49-58 49s-25-13-50-29Z" style="fill-rule:nonzero" transform="matrix(.1 0 0 -.1 -.432 1080)"/><path d="M5843 3814c-59-29-123-94-123-125 0-11 9-34 21-50 46-64 64-137 63-254 0-89-4-122-23-173-13-34-21-69-18-76 12-30 144-51 324-51 218 0 214-2 189 116-63 295-258 639-361 639-12 0-44-12-72-26ZM4340 3614c-19-8-50-29-68-47-77-73-101-166-109-419l-6-187 84 25c72 23 591 200 642 219 36 15 17 48-80 145-103 101-294 237-372 265-52 18-47 18-91-1ZM7528 3362l-78-27-97-145c-54-80-132-190-174-245l-76-100 10-75c6-41 12-77 14-79 4-6 2-8 144 180 147 194 362 520 342 518-4 0-43-13-85-27ZM3150 3353c0-16 240-392 250-393 3 0 17 26 31 59l26 59-63 98c-35 55-65 102-66 106-4 9-178 78-178 71ZM4863 3158c-27-9-33-16-33-38 0-37 55-117 108-157 86-65 177-67 219-4 13 19 23 37 23 41 0 19-98 124-135 146-46 26-121 31-182 12ZM1246 8694c-40-55-46-68-35-79 8-7 114-87 237-179 225-168 250-194 236-240-11-35-58-96-71-91-9 3-402 294-509 376-6 5-30-18-61-60l-51-68 291-219c161-120 295-219 299-219 12 0 150 189 170 233 38 84 19 230-40 296-16 17-408 317-414 316-2-1-25-30-52-66ZM825 8006c-17-7-44-29-59-47-41-49-126-227-126-263 1-43 33-111 64-131 13-9 139-77 278-150l253-133 37 66c21 37 38 72 38 78 0 7-57 42-127 78-71 36-134 70-141 75-11 6-6 23 22 80 20 39 39 71 43 71 3 0 66-31 139-70 74-38 138-70 144-70 10 0 84 139 78 146-2 2-121 65-263 140-276 146-316 160-380 130Zm118-187c45-23 83-43 85-44 2-2-65-131-75-144-4-6-141 66-164 86-50 43-10 139 59 142 7 1 49-18 95-40ZM478 7258c-21-13-45-34-54-46-9-13-42-101-74-197l-58-174 111-37c62-20 215-72 342-116 126-43 235-78 240-78 6 0 22 36 37 80l26 79-155 52c-153 51-155 51-148 78 13 54 40 96 68 106 23 7 52 1 155-33 69-23 129-38 133-34 15 16 51 144 43 152-5 4-74 29-152 55-161 53-176 52-212-7-20-33-20-33-20-7 0 68-95 139-194 146-40 3-59-1-88-19Zm119-162c53-18 93-54 93-86s-32-111-44-107c-6 2-56 19-111 37s-102 34-104 36 2 23 9 48c12 43 39 78 70 89 17 6 15 6 87-17ZM207 6488c-3-13-9-45-12-73l-6-50 126-153c69-84 125-154 125-155 0-2-64 7-142 19-79 12-145 20-148 17-6-6-30-156-25-161 1-2 164-28 361-58 268-41 359-52 365-43 4 7 10 37 14 68 3 31 8 63 11 72 4 13-10 18-73 28-43 7-107 17-141 23l-64 10 159 104 158 103 12 68c6 37 12 75 12 84 1 12-67-28-206-122-164-111-209-137-218-127-7 7-76 93-154 191-78 97-143 177-145 177s-6-10-9-22ZM574 5402c-95-76-3-224 104-168 92 48 60 186-42 186-24 0-50-8-62-18ZM10121 5376c-57-32-68-111-22-157 63-62 171-20 171 66 0 29-8 45-34 71-37 37-73 43-115 20ZM406 4982c-8-7-7-51 0-78 4-16 16-23 44-28l38-6 4-60 3-61-37-11c-22-6-38-18-41-30-8-27 4-88 16-88 5 0 99 33 209 72l199 73-3 54-3 55-45 13c-140 41-380 100-384 95Zm239-148c69-11 71-20 8-37-81-23-83-22-83 19 0 29 3 34 18 30 9-3 35-8 57-12ZM10080 4929c-80-25-129-92-130-177 0-117 82-184 231-185 98-1 153 27 187 93 48 95 18 203-69 247-53 28-164 39-219 22Zm180-124c45-23 53-65 18-102-19-20-31-23-92-23-80 0-114 13-135 52-14 25-14 29 5 55 11 15 32 31 45 35 34 10 125 0 159-17ZM10015 4476c-43-19-92-78-106-128-7-24-12-72-13-107l-1-65 205-32c113-17 206-30 208-29 6 5 32 142 32 170 0 92-60 172-143 194-60 15-145 13-182-3Zm144-102c52-11 81-46 81-99 0-46-1-46-27-41-16 3-70 12-122 21-52 8-96 17-99 20-3 2 2 21 9 42 22 56 71 74 158 57ZM740 4408c-69-9-163-22-209-29l-83-11 5-40c3-22 9-44 14-48 4-4 55 1 113 10 58 10 106 16 108 15s-27-20-63-41c-55-32-65-42-65-65 0-41 22-56 100-70 38-7 68-14 66-16-3-3-52-15-111-28-58-12-108-25-111-28-5-4 11-85 18-92 1-2 95 18 208 44l205 46-4 35c-5 59-13 65-113 84-52 9-100 21-107 25-8 5 21 28 85 66l96 57-6 41c-11 66-8 65-146 45ZM9860 4075c-24-64-19-69 95-95 58-13 102-26 98-30s-57-22-118-40c-60-17-114-35-118-40-5-4-12-24-17-44-8-35-7-36 29-46 45-12 371-90 376-90 10 0 27 81 19 89-5 5-53 19-107 31-53 13-95 26-92 29 3 2 58 21 123 41l117 35 9 38c5 20 7 40 3 43-4 4-87 26-184 50-98 24-188 46-201 49-17 4-24 0-32-20ZM546 3849c11-58 21-69 62-69 37 0 38-1 56-57 16-54 16-59 0-68-50-30-55-38-43-80 6-22 14-44 18-48 5-5 91 46 192 111 201 130 195 123 164 200l-14 32H858c-68 0-167 3-221 7l-97 6 6-34Zm275-105c-68-38-81-35-81 14 0 21 4 22 73 22h72l-64-36ZM9760 3685c-27-72-34-66 120-119 88-30 146-56 155-68 18-26 2-74-28-82-13-3-77 13-156 40-75 24-141 42-147 40-13-5-41-83-33-90 2-1 65-24 140-49 150-52 206-58 255-28 41 25 74 97 74 162 0 47-4 55-38 89-31 29-66 45-178 83-76 26-142 47-147 47-4 0-12-11-17-25ZM860 3512c-102-36-186-66-188-68-8-5 23-87 34-91s271 82 371 123l32 13-15 45c-11 31-21 46-32 45-10 0-100-30-202-67ZM993 3350c-131-26-223-126-209-225 9-58 55-128 99-148 96-46 272 16 323 115 18 35 20 101 5 142-37 95-114 136-218 116Zm112-125c29-28 30-36 10-74-19-38-105-81-161-81-33 0-47 5-58 22-36 51-3 102 88 137 68 27 92 26 121-4ZM9621 3301c-36-67-37-65 51-156l81-85-115 6c-114 7-116 7-131-17-9-13-18-35-22-49-6-24 3-29 181-118 199-99 202-100 223-42 11 34 20 27-108 91l-96 47 82-5 81-6 17 32c19 37 19 37-54 114l-46 48 110-45c60-25 113-42 117-38 14 14 38 81 30 86-5 3-209 86-379 153-6 2-16-4-22-16ZM1118 2908c-186-99-187-99-177-126 5-15 17-36 25-47 17-22-3-31 222 90 78 42 94 48 102 35 15-23 12-38-11-61-18-18-30-21-73-17l-51 4-50-64c-84-107-80-96-53-143 12-24 28-44 33-45 6-2 34 32 63 75l53 78 52-4c40-3 60 1 85 17 42 26 66 81 57 129-7 40-45 120-73 156l-18 23-186-100ZM9369 2701c-114-37-168-176-105-271 53-80 160-136 245-128 118 11 195 147 145 254-44 93-200 172-285 145Zm98-122c100-48 130-118 71-162-26-20-28-20-75-2-63 24-125 83-125 118 0 36 28 67 60 67 14 0 45-9 69-21ZM1480 2486c-132-35-227-156-201-253 26-94 107-159 187-150 91 10 209 97 234 173 33 99-40 218-145 237-16 3-50 0-75-7Zm114-129 21-28-20-37c-36-68-148-123-191-94-19 13-35 52-29 72 8 25 79 88 119 106 44 19 76 13 100-19ZM9085 2311c-39-24-96-85-128-137l-26-42 165-127c93-71 172-124 179-121 24 9 104 119 120 165 19 58 19 87-4 136-51 113-218 181-306 126Zm113-96c44-19 79-50 98-87 16-31 11-62-14-95l-17-23-97 75c-54 42-98 79-98 84 0 10 41 47 60 54 24 9 28 8 68-8ZM1665 2074c-83-69-156-131-163-138-10-10-6-20 21-51l34-40 122 103c68 57 129 106 136 108 7 3 19-4 25-16 10-19 9-27-7-48-21-28-67-45-95-36-14 4-27-14-63-85-25-50-45-95-45-100 0-13 59-81 70-81 4 0 24 41 45 90 37 88 38 90 72 90 105 0 164 101 114 198-20 38-97 132-110 132-4 0-74-57-156-126ZM8667 1852l-38-39 101-189c56-104 105-192 109-197 4-4 23 9 41 29l35 35-20 35-21 35 41 43 40 43 39-19 39-20 36 36c22 22 32 39 26 45-10 9-378 201-386 201-3 0-22-17-42-38Zm212-159c3-2-7-16-22-30-14-15-28-25-30-22-10 13-67 110-67 115 0 4 104-50 119-63ZM1965 1841c-56-25-130-110-143-163-21-84 21-172 112-235l50-34 78 78 78 77-32 33c-18 18-37 33-42 33-6 0-32-21-58-47l-47-46-20 24c-39 46-18 118 49 167 52 39 91 39 133 2 20-17 39-40 42-50 6-19 7-19 46 0 21 11 39 23 39 26 0 32-87 126-133 143-42 16-107 13-152-8ZM8455 1643c-74-38-125-113-125-183 0-83 60-173 142-214 94-47 168-27 256 68l52 58-39 46c-21 26-54 65-73 86l-34 40-39-36-39-35 48-56 47-56-26-17c-54-35-121-11-165 61-40 66-23 127 44 159 20 9 36 19 36 21 0 15-36 75-44 75-6-1-24-8-41-17ZM2230 1469c-96-61-179-115-185-121-7-6 2-20 25-39 41-35 43-35 80-7l30 22 38-35c20-18 41-37 45-40s0-23-10-44l-18-37 35-29c19-16 39-29 45-29 10 0 175 373 175 397 0 11-65 73-78 73-4 0-86-50-182-111Zm113-76c-15-32-29-60-30-62-6-9-53 23-53 35 0 11 86 82 102 83 4 1-4-25-19-56ZM2633 1399l-242-344 29-27c17-16 36-28 43-28 6 1 38 39 70 86 33 47 61 84 63 81 2-2 0-59-6-126s-8-126-5-131c7-11 65-43 69-38 44 56 230 327 233 338 3 13-63 69-70 59-45-60-109-154-114-165-15-39-17-2-7 114 12 136 10 143-36 167l-27 14ZM8083 1348c-24-16-43-35-43-41 0-19 128-399 138-409 8-8 82 37 82 51 0 5-6 23-14 41l-13 33 50 34 51 34 29-22c30-21 31-22 64-4s59 43 52 49c-2 1-78 58-169 126s-169 126-175 131c-5 4-29-6-52-23Zm152-173 30-26-24-20c-13-11-28-18-33-17-7 3-58 113-58 126 0 4 46-30 85-63ZM7838 1180c-20-11-39-23-41-27-3-5 3-57 14-117 10-61 17-111 16-113-2-1-43 30-92 69l-88 71-44-23c-23-12-43-27-43-32 0-20 193-368 204-368 6 0 26 9 44 20l33 20-37 68c-20 37-46 82-56 100-11 17-17 32-13 32s31-21 62-47l55-47 35 19c30 17 34 23 29 49-12 71-18 126-14 126 3 0 31-42 63-94l59-95 37 20c21 10 40 23 43 28 5 8-219 362-227 361-1-1-19-10-39-20ZM2856 989c-102-170-107-181-90-194 23-17 74-39 78-34 1 2 45 74 96 159 52 85 100 165 108 177 12 20 11 23-25 47-21 14-42 26-48 26-5-1-59-82-119-181ZM3108 1048c-32-51-30-56 32-89 33-18 60-35 60-38s-63-49-140-101c-87-59-139-101-137-110 2-14 219-138 244-139 12-1 43 48 43 68 0 5-27 24-60 43l-59 33 144 100c80 55 145 105 145 112 0 9-237 143-253 143-3 0-11-10-19-22ZM7308 889c-44-22-43-13-19-179 10-69 17-126 16-127-1-2-41 47-89 107-58 73-94 110-107 110-16 0-73-23-88-36-6-6 281-329 296-332 20-5 93 28 93 42 0 6-9 103-20 216s-20 208-20 213c0 12-23 7-62-14ZM3414 725c-133-153-164-190-164-198 0-3 20-13 45-23l46-17 54 64 40-21c21-11 45-20 53-20 9 0 12-13 10-47l-3-47 48-18c26-10 47-17 47-15 1 1 12 99 25 217 26 237 28 227-38 254l-37 15-126-144Zm113-68c-10-67-11-68-36-62-46 11-46 22-2 80 24 31 44 55 46 53 1-2-2-34-8-71ZM4228 733c-18-4-23-28-12-56 3-9 14-12 29-9 14 2 39-5 59-18 24-14 48-20 73-18 35 3 38 6 38 33 0 25-4 30-23 28-13-2-44 8-70 22-46 25-60 27-94 18ZM6863 713l-43-15V572c0-70 3-171 7-225 7-108 2-103 75-75 25 9 27 13 22 52l-6 41 43 11c24 6 51 14 61 18 12 5 21-1 34-23 21-35 48-40 95-16 20 11 27 20 22 29-32 54-250 346-258 345-5 0-29-7-52-16Zm89-182 36-59-30-13c-17-7-33-8-38-3-9 10-18 134-10 134 3 0 21-27 42-59ZM3822 699c-71-36-121-127-122-222 0-65 9-87 54-135l31-33-28-21c-29-21-28-38 3-38 23 0 36-18 23-31-6-6-20-6-37 2-36 17-59-2-33-28 12-12 34-18 74-18 53 0 58 2 67 27 8 23 6 32-14 53-13 14-21 27-18 30s28 0 55-6c71-17 85-9 81 43l-3 43-50 7c-89 12-119 80-76 174 34 74 93 94 161 53l34-21 24 27c32 37 25 55-31 84-67 34-140 38-195 10ZM4128 433c-63-104-112-191-109-195s25-11 48-16c43-10 43-10 64 28s22 38 55 24c18-8 45-14 59-14 23 0 25-4 25-45 0-42 1-44 38-54 59-17 73-14 68 11-3 13-8 86-11 163s-8 168-11 202l-6 62-50 10c-27 6-50 11-52 11s-55-84-118-187Zm142-24v-71l-32 6c-17 3-34 8-37 11-6 7 51 125 61 125 4 0 8-32 8-71ZM6422 591c-29-10-55-20-58-23-2-3 14-79 36-169 68-272 55-242 102-236 22 3 45 10 50 15 7 7-4 66-30 171-22 91-35 164-30 167 18 12 59-7 68-31 11-30 3-80-16-96-10-9-1-27 49-94s67-84 88-85c27 0 89 18 89 27 0 3-27 37-61 76-48 55-59 74-54 91 53 159-57 248-233 187ZM6232 550c-19-4-37-12-41-16-10-12-61-187-61-210 0-10 30-61 68-112l67-94 50 7c28 3 53 9 57 13s-25 50-63 102-69 98-69 102 14 50 30 101c17 52 30 99 30 106 0 12-19 13-68 1ZM4565 517c-76-42-126-197-95-293 27-84 109-132 206-121 61 6 93 31 127 99 48 95 46 208-5 273-49 63-160 83-233 42Zm142-89c36-29 21-171-23-215-30-30-59-29-89 2-30 29-33 85-7 160 23 68 72 90 119 53ZM5998 513c-10-2-18-8-18-11 0-4 14-99 32-211l32-203 48 4c27 3 51 7 53 10 3 2-6 72-19 154-14 82-28 174-33 204-8 54-9 55-43 57-19 0-43-1-52-4ZM5087 393c-4-49-8-144-9-213l-3-125 60-9c85-13 177 4 224 42 50 40 73 106 67 194-5 76-22 115-66 151-41 35-89 47-186 47h-81l-6-87Zm194-29c41-37 49-138 14-191-16-24-77-45-102-36-11 4-14 15-9 42 3 20 6 76 6 125v89l36-6c20-3 45-14 55-23ZM5522 473c-19-4-22-9-18-31 3-15 8-109 12-210l7-182h61c33 0 91 3 129 7l67 6v87h-160v79l58 3c51 3 57 5 60 27 2 12 1 34-2 46-6 22-10 23-60 18l-53-6-5 32c-2 17-2 33 0 36 3 3 36 5 74 5h68v90l-107-1c-60-1-118-4-131-6Z" style="fill-rule:nonzero" transform="matrix(.1 0 0 -.1 -.432 1080)"/><path d="M9495 8320c-170-99-311-184-313-189-2-6 52-109 75-140 1-2 56 28 123 67 66 39 120 66 120 59 0-6-25-88-57-182l-56-171 39-67c21-37 41-67 44-67s37 102 75 226 72 229 75 234c4 7 248-43 468-95 22-5 22-4-8 47-17 29-34 58-38 65s-93 30-197 53c-105 22-194 42-200 43-5 2 48 36 118 77 70 40 127 77 127 82 0 12-73 138-80 138-3 0-144-81-315-180ZM9900 7558c-118-44-226-90-238-102-66-59-69-129-13-275 22-57 48-112 58-124 23-26 91-57 125-57 39 0 458 158 487 184 28 25 60 91 61 124 0 39-81 246-109 276-32 35-79 56-123 56-18-1-130-37-248-82Zm319-93c39-20 55-66 37-109-13-31-25-37-232-114-121-45-224-82-231-82-6 0-25 12-42 26-39 33-43 89-8 122 20 19 404 170 435 172 7 0 26-7 41-15ZM10130 6825c-253-54-335-75-333-86 1-8 18-90 38-184 38-181 56-220 115-250 60-31 168-14 225 36 35 31 61 89 51 114-11 29 10 14 28-20 34-63 92-84 182-65 71 15 129 64 145 123 9 35 5 66-28 224-37 179-38 183-63 182-14-1-176-34-360-74Zm350-158c21-93-9-125-135-143-57-8-90 20-106 91-7 30-10 57-8 58 6 5 191 44 216 46 18 1 23-7 33-52Zm-319-73c19-83 4-104-86-127-105-26-142-3-159 99l-7 41 93 20c147 32 144 33 159-33ZM10292 5986l-362-29 6-81c4-45 8-82 9-84 3-3 608 44 687 54l46 6-5 76c-3 42-8 80-12 83-3 3-169-8-369-25ZM5446 10708c-3-24-13-186-22-362-18-346-19-336 37-336 25 0 27 3 32 68 4 37 9 136 13 220 4 83 10 152 14 152 5 0 68-65 141-145 118-130 134-144 150-133 10 7 79 66 154 132 75 65 138 116 141 114 2-3 0-77-6-164-5-87-10-184-10-216v-56l75-7c42-4 79-4 83 0 7 6 40 546 41 673l1 62h-40c-37 0-52-10-188-127-81-69-166-144-188-166l-42-39-69 73c-38 41-116 125-173 187-58 61-112 112-121 112-13 0-19-11-23-42ZM6621 10603c-37-143-163-674-160-677 6-5 382-96 395-96 12 0 36 68 26 74-4 2-60 16-124 30-65 15-118 30-118 32 0 16 54 221 60 228 5 4 42 0 84-10s78-15 81-13c2 3 6 20 7 39l3 33-75 19c-41 11-77 21-79 23-3 4 48 225 54 233 1 2 57-10 124-26s123-26 125-23 7 20 10 38c8 37 27 30-219 88-82 20-158 38-167 41-13 4-19-4-27-33ZM7290 10409c-38-16-71-50-91-97-31-72-25-114 41-282 63-160 65-176 27-217-48-53-160 4-143 72 5 20 1 25-30 35-44 15-54 5-54-55 0-79 54-127 191-170 98-31 174 0 214 88 37 78 33 114-35 289-53 139-59 159-49 187 13 36 35 51 77 51 45 0 82-34 82-76 0-30 5-37 35-50 45-18 43-19 51 20 16 88-24 142-136 185-81 32-136 38-180 20ZM7807 10205l-17-35 76-41c71-39 74-42 61-63-20-31-285-518-292-537-5-13 10-25 59-53 35-20 68-36 73-36s78 126 162 280c85 154 158 280 163 280s38-16 72-35c35-19 66-35 69-35 12 0 39 62 30 70-9 9-404 227-426 236-8 3-20-9-30-31ZM8252 9579c-122-160-220-294-218-298 3-4 32-28 65-54l60-47 98 129c54 72 101 130 104 130 3 1 27-18 53-42 67-63 64-80-34-210-44-59-80-108-80-111 0-7 113-89 125-90 7 0 54 52 104 118 106 138 112 163 59 215l-32 31 32-11c68-24 138 13 194 100 45 72 34 155-28 212-16 15-81 66-144 114s-120 91-126 96-91-97-232-282Zm362 78c61-58 62-87 3-159-37-46-48-53-83-56-32-2-48 3-80 28-21 18-39 35-39 38 0 10 139 191 146 192 3 0 27-19 53-43ZM8920 9153c-102-97-220-209-263-250l-78-74 84-87c46-48 110-115 142-149 32-35 61-63 64-63s19 12 34 26l29 25-84 85c-45 47-84 88-86 92-1 4 36 46 83 92l86 85 122-126 28 27 29 27-55 58c-30 32-55 62-55 67 0 6 39 46 86 89l87 79 88-90 88-91 54 54-33 38c-77 88-247 263-256 263-5-1-92-80-194-177Z" style="fill:#ff010b;fill-rule:nonzero" transform="matrix(.1 0 0 -.1 -.432 1080)"/></svg>